<svg width="43" height="43" viewBox="0 0 43 43" fill="none" xmlns="http://www.w3.org/2000/svg">
<path d="M35.8333 21.5V39.4167H7.16666V21.5" stroke="#F82C2C" stroke-width="4" stroke-linecap="round" stroke-linejoin="round"/>
<path d="M39.4167 12.5417H3.58334V21.5H39.4167V12.5417Z" stroke="#F82C2C" stroke-width="4" stroke-linecap="round" stroke-linejoin="round"/>
<path d="M21.5 39.4167V12.5417" stroke="#F82C2C" stroke-width="4" stroke-linecap="round" stroke-linejoin="round"/>
<path d="M21.5 12.5416H13.4375C12.2496 12.5416 11.1103 12.0697 10.2703 11.2297C9.43025 10.3897 8.95834 9.25043 8.95834 8.06248C8.95834 6.87453 9.43025 5.73524 10.2703 4.89523C11.1103 4.05522 12.2496 3.58331 13.4375 3.58331C19.7083 3.58331 21.5 12.5416 21.5 12.5416Z" stroke="#F82C2C" stroke-width="4" stroke-linecap="round" stroke-linejoin="round"/>
<path d="M21.5 12.5416H29.5625C30.7504 12.5416 31.8897 12.0697 32.7297 11.2297C33.5698 10.3897 34.0417 9.25043 34.0417 8.06248C34.0417 6.87453 33.5698 5.73524 32.7297 4.89523C31.8897 4.05522 30.7504 3.58331 29.5625 3.58331C23.2917 3.58331 21.5 12.5416 21.5 12.5416Z" stroke="#F82C2C" stroke-width="4" stroke-linecap="round" stroke-linejoin="round"/>
</svg>
