<svg width="46" height="42" viewBox="0 0 46 42" fill="none" xmlns="http://www.w3.org/2000/svg">
<path d="M0.50723 40.8013L3.87531 36.112L6.25231 41.3735L0.50723 40.8013ZM44.5062 0.83993C44.5947 0.578334 44.8785 0.437969 45.1401 0.526416C45.4016 0.61486 45.542 0.898625 45.4536 1.16022L44.5062 0.83993ZM39.5082 16.0624L39.9747 16.2423L39.5082 16.0624ZM2.93473 39.1403C3.46095 38.8954 4.05527 38.6168 4.70766 38.3078L5.13571 39.2116C4.48117 39.5216 3.88479 39.8012 3.35665 40.047L2.93473 39.1403ZM6.44875 37.4764C7.00582 37.2083 7.5909 36.9246 8.19973 36.6268L8.63909 37.5252C8.02828 37.8239 7.44132 38.1085 6.88246 38.3775L6.44875 37.4764ZM9.94758 35.7651C10.5137 35.4837 11.0948 35.1927 11.6882 34.8928L12.1392 35.7853C11.5438 36.0862 10.9606 36.3783 10.3927 36.6606L9.94758 35.7651ZM13.4185 34.0111C13.9857 33.7195 14.5611 33.4212 15.1424 33.1169L15.6061 34.0029C15.0225 34.3084 14.445 34.6078 13.8756 34.9004L13.4185 34.0111ZM16.8598 32.2095C17.4269 31.907 17.9975 31.5996 18.5695 31.2881L19.0477 32.1663C18.4731 32.4793 17.9 32.788 17.3305 33.0918L16.8598 32.2095ZM20.2703 30.3517C20.835 30.0372 21.3992 29.7194 21.9611 29.3988L22.4566 30.2674C21.8916 30.5898 21.3244 30.9093 20.7568 31.2254L20.2703 30.3517ZM23.6408 28.4277C24.2016 28.099 24.7579 27.7683 25.3079 27.436L25.825 28.292C25.2709 28.6267 24.7108 28.9597 24.1465 29.2904L23.6408 28.4277ZM26.9599 26.4213C27.5141 26.0749 28.0593 25.7277 28.5934 25.3804L29.1386 26.2188C28.5991 26.5696 28.0488 26.92 27.4899 27.2693L26.9599 26.4213ZM30.204 24.3093C30.7489 23.9382 31.2784 23.5679 31.79 23.1994L32.3745 24.0108C31.8552 24.3849 31.3184 24.7602 30.7669 25.1358L30.204 24.3093ZM33.3409 22.0439C33.8687 21.6361 34.37 21.232 34.8413 20.8329L35.4875 21.5961C35.0035 22.0059 34.4904 22.4194 33.9523 22.8352L33.3409 22.0439ZM36.263 19.555C36.7522 19.0845 37.1895 18.6252 37.5693 18.1793L38.3306 18.8277C37.9254 19.3033 37.4646 19.7868 36.9562 20.2757L36.263 19.555ZM38.6508 16.6852C38.8126 16.4065 38.9429 16.1388 39.0417 15.8825L39.9747 16.2423C39.8541 16.555 39.6996 16.8703 39.5156 17.1872L38.6508 16.6852ZM39.0417 15.8825C39.1624 15.5695 39.2821 15.2579 39.4006 14.948L40.3346 15.3053C40.2158 15.616 40.0958 15.9285 39.9747 16.2423L39.0417 15.8825ZM40.1103 13.0775C40.3502 12.4401 40.5841 11.8138 40.8109 11.2023L41.7485 11.55C41.5211 12.163 41.2867 12.7908 41.0462 13.4298L40.1103 13.0775ZM41.5023 9.32447C41.7409 8.67193 41.9691 8.04309 42.1854 7.44315L43.1261 7.78239C42.9093 8.38363 42.6806 9.01386 42.4415 9.66786L41.5023 9.32447ZM42.8604 5.5587C43.1066 4.86626 43.3299 4.2332 43.5269 3.67119L44.4706 4.00203C44.2731 4.56537 44.0494 5.19986 43.8025 5.89382L42.8604 5.5587ZM44.183 1.78447C44.2879 1.47998 44.3688 1.24364 44.4234 1.08352C44.4507 1.00346 44.4715 0.942462 44.4854 0.901528C44.4923 0.881059 44.4975 0.86561 44.501 0.855301C44.5028 0.850147 44.5041 0.846279 44.505 0.84371C44.5054 0.842428 44.5057 0.841469 44.5059 0.840838C44.506 0.840523 44.5061 0.840289 44.5062 0.840138C44.5062 0.840062 44.5062 0.840007 44.5062 0.839973C44.5062 0.839955 44.5062 0.839943 44.5062 0.839936C44.5062 0.839932 44.5062 0.83993 44.5062 0.83993C44.5062 0.83993 44.5062 0.83993 44.9799 1.00008C45.4536 1.16022 45.4536 1.16022 45.4536 1.16023C45.4536 1.16023 45.4536 1.16024 45.4536 1.16024C45.4536 1.16026 45.4535 1.16028 45.4535 1.1603C45.4535 1.16035 45.4535 1.16042 45.4535 1.16051C45.4534 1.16068 45.4533 1.16094 45.4532 1.16128C45.453 1.16197 45.4526 1.16298 45.4522 1.16431C45.4513 1.16698 45.4499 1.17096 45.4482 1.17622C45.4446 1.18674 45.4393 1.2024 45.4323 1.22308C45.4182 1.26445 45.3973 1.32589 45.3698 1.4064C45.3149 1.56743 45.2337 1.80472 45.1284 2.11022L44.183 1.78447Z" fill="#4F4F4F"/>
</svg>
