<svg width="129" height="59" viewBox="0 0 129 59" fill="none" xmlns="http://www.w3.org/2000/svg">
<mask id="path-1-inside-1_1_3638" fill="white">
<path fill-rule="evenodd" clip-rule="evenodd" d="M63.6295 0.43333C62.2735 0.803707 60.9687 1.53053 56.2116 4.56471L51.4612 7.59475L50.4273 7.46053C48.4769 7.20724 47.1824 7.29922 46.0771 7.76969C44.8604 8.28745 42.8527 9.39399 40.6784 10.7449C36.807 13.1507 17.3052 25.9498 17.1843 26.1644C16.8047 26.8375 17.653 27.6401 18.3612 27.2778C18.5466 27.1831 23.7999 23.7839 30.0354 19.7243C42.1553 11.8333 43.7877 10.8123 45.9673 9.75977C47.506 9.01657 48.2449 8.92658 50.2092 9.24293C50.8802 9.35098 51.3657 9.34914 51.7844 9.23742C52.1172 9.1485 54.6105 7.66378 57.3249 5.93801C63.0444 2.30189 63.7371 1.97881 65.5893 2.08304C67.1512 2.17104 68.7508 2.69859 71.5053 4.03409C74.5693 5.51942 74.6432 5.5632 93.7238 17.1561C103.344 23.0013 111.376 27.8562 111.572 27.9446C112.259 28.2555 113.022 27.365 112.594 26.7525C112.466 26.5695 78.6283 5.94107 75.7696 4.3033C72.1172 2.21083 69.1088 0.910382 66.8488 0.447258C65.4721 0.165038 64.6245 0.161364 63.6295 0.43333ZM77.5435 42.7693C74.508 43.1178 72.2713 45.1224 71.4626 48.2194C71.1439 49.4393 71.1408 52.1839 71.4567 53.3979C72.46 57.2539 75.0343 59.1375 79.0307 58.9393C80.7063 58.8562 82.0233 58.3302 83.161 57.2895C84.4153 56.1424 85.343 53.769 84.7622 53.1928C84.5191 52.9516 83.6384 52.9567 83.4454 53.2005C83.3621 53.3058 83.1753 53.7067 83.0304 54.0917C82.6287 55.1581 81.7371 56.2102 80.7827 56.7437C79.9988 57.1819 79.8228 57.218 78.469 57.2172C77.1762 57.2166 76.9106 57.1679 76.2134 56.8037C75.7787 56.5766 75.1389 56.0704 74.7917 55.6789C72.7371 53.363 72.7649 48.296 74.8446 46.0008C75.8245 44.9193 77.1012 44.373 78.6232 44.3837C80.4806 44.3967 81.5141 45.0349 82.733 46.9217C83.4771 48.0734 83.972 48.3423 84.4908 47.8765C85.4594 47.0068 83.8121 44.3662 81.6754 43.3636C80.8319 42.9678 80.4355 42.8717 78.9317 42.6986C78.7196 42.6741 78.0949 42.706 77.5435 42.7693ZM99.0609 42.7722C94.9398 43.1636 92.4036 46.6388 92.7095 51.4756C93.014 56.2874 95.7673 58.986 100.362 58.9757C102.528 58.971 104.309 58.2697 105.602 56.9123C106.928 55.5216 107.575 53.8655 107.726 51.4756C107.936 48.1496 106.711 45.2323 104.509 43.8206C103.098 42.9158 101.265 42.563 99.0609 42.7722ZM0.724583 43.1475C0.4855 43.7716 0.530232 58.0406 0.772863 58.5189C1.0266 59.0194 1.92972 59.1306 2.31441 58.7088C2.53884 58.4627 2.5791 57.9445 2.61504 54.8369L2.65653 51.2491L6.85976 51.2084L11.063 51.1677V54.6238C11.063 58.6381 11.1474 58.9699 12.1703 58.9757C13.0944 58.9809 13.0682 59.2162 13.0682 50.922C13.0682 45.993 13.0124 43.2436 12.9086 43.0509C12.7022 42.6683 11.6605 42.6392 11.3517 43.0075C11.1936 43.1963 11.1207 44.0565 11.063 46.4128L10.9859 49.5656H6.8212H2.65653L2.5794 46.3516C2.53699 44.5839 2.44613 43.0515 2.37749 42.9462C2.30839 42.8402 1.9456 42.7549 1.56384 42.7549C0.966443 42.7549 0.855076 42.807 0.724583 43.1475ZM41.9086 43.1475C41.8185 43.3826 41.7582 46.4533 41.7582 50.7999C41.7582 57.8557 41.7668 58.0683 42.0667 58.3658C42.3614 58.6583 42.5808 58.6719 46.9731 58.6719C52.0177 58.6719 52.1624 58.6479 52.0674 57.8262C51.9783 57.0556 51.6374 56.9932 47.5039 56.9907L43.7634 56.9884V50.1677C43.7634 45.7587 43.7069 43.2424 43.6037 43.0509C43.4822 42.8258 43.2783 42.7549 42.7515 42.7549C42.1501 42.7549 42.0392 42.8065 41.9086 43.1475ZM60.4275 43.0509C60.3236 43.2435 60.2678 45.9621 60.2678 50.8224C60.2678 59.1631 60.2451 58.978 61.2704 58.978C62.2948 58.978 62.273 59.1531 62.273 50.9162C62.273 45.6404 62.222 43.4233 62.0939 43.1448C61.9426 42.8149 61.8129 42.7549 61.2511 42.7549C60.7526 42.7549 60.5473 42.8287 60.4275 43.0509ZM116.476 43.0771C116.196 43.3847 116.182 43.74 116.182 50.9715C116.182 58.2904 116.192 58.5509 116.482 58.7609C116.897 59.0621 117.55 59.0322 117.855 58.6981C118.084 58.4476 118.11 57.7791 118.11 52.3108V46.2034L122.277 52.3994C124.568 55.8072 126.559 58.6816 126.702 58.7867C127.086 59.0699 127.897 59.0189 128.312 58.6856L128.676 58.3931L128.721 50.9384C128.771 42.505 128.802 42.7549 127.679 42.7549C127.347 42.7549 127.019 42.8411 126.95 42.9462C126.882 43.0515 126.791 45.9192 126.748 49.3192L126.671 55.5006L122.605 49.4441C120.368 46.113 118.404 43.2451 118.241 43.0713C117.834 42.6374 116.874 42.6406 116.476 43.0771ZM23.1939 43.052C22.8669 43.1175 22.5382 43.2669 22.4635 43.384C22.3889 43.5009 22.3267 46.8814 22.3253 50.896L22.323 58.1955L22.6659 58.4336C22.9591 58.6375 23.7355 58.6719 28.035 58.6719C33.5422 58.6719 33.6536 58.6549 33.5578 57.8262C33.4674 57.0441 33.1609 56.9932 28.5315 56.9907L24.3282 56.9884V54.157V51.3256H28.2506C32.5445 51.3256 32.7285 51.288 32.6273 50.4298C32.5433 49.7165 32.1388 49.6468 28.0687 49.6444L24.3282 49.6421V47.1168V44.5915H28.5031C31.0858 44.5915 32.7916 44.5311 32.9763 44.4331C33.3486 44.2354 33.3748 43.4873 33.0198 43.1945C32.8183 43.0286 31.8246 42.9792 28.2767 42.9588C25.8081 42.9446 23.5209 42.9865 23.1939 43.052ZM102.305 44.8038C104.464 45.7842 105.616 47.885 105.616 50.8383C105.616 53.1448 105.034 54.6578 103.655 55.9382C101.228 58.1908 97.4045 57.5585 95.6607 54.6162C94.5798 52.7921 94.5461 49.2244 95.5907 47.1927C96.8552 44.7334 99.8246 43.6769 102.305 44.8038Z"/>
</mask>
<path fill-rule="evenodd" clip-rule="evenodd" d="M63.6295 0.43333C62.2735 0.803707 60.9687 1.53053 56.2116 4.56471L51.4612 7.59475L50.4273 7.46053C48.4769 7.20724 47.1824 7.29922 46.0771 7.76969C44.8604 8.28745 42.8527 9.39399 40.6784 10.7449C36.807 13.1507 17.3052 25.9498 17.1843 26.1644C16.8047 26.8375 17.653 27.6401 18.3612 27.2778C18.5466 27.1831 23.7999 23.7839 30.0354 19.7243C42.1553 11.8333 43.7877 10.8123 45.9673 9.75977C47.506 9.01657 48.2449 8.92658 50.2092 9.24293C50.8802 9.35098 51.3657 9.34914 51.7844 9.23742C52.1172 9.1485 54.6105 7.66378 57.3249 5.93801C63.0444 2.30189 63.7371 1.97881 65.5893 2.08304C67.1512 2.17104 68.7508 2.69859 71.5053 4.03409C74.5693 5.51942 74.6432 5.5632 93.7238 17.1561C103.344 23.0013 111.376 27.8562 111.572 27.9446C112.259 28.2555 113.022 27.365 112.594 26.7525C112.466 26.5695 78.6283 5.94107 75.7696 4.3033C72.1172 2.21083 69.1088 0.910382 66.8488 0.447258C65.4721 0.165038 64.6245 0.161364 63.6295 0.43333ZM77.5435 42.7693C74.508 43.1178 72.2713 45.1224 71.4626 48.2194C71.1439 49.4393 71.1408 52.1839 71.4567 53.3979C72.46 57.2539 75.0343 59.1375 79.0307 58.9393C80.7063 58.8562 82.0233 58.3302 83.161 57.2895C84.4153 56.1424 85.343 53.769 84.7622 53.1928C84.5191 52.9516 83.6384 52.9567 83.4454 53.2005C83.3621 53.3058 83.1753 53.7067 83.0304 54.0917C82.6287 55.1581 81.7371 56.2102 80.7827 56.7437C79.9988 57.1819 79.8228 57.218 78.469 57.2172C77.1762 57.2166 76.9106 57.1679 76.2134 56.8037C75.7787 56.5766 75.1389 56.0704 74.7917 55.6789C72.7371 53.363 72.7649 48.296 74.8446 46.0008C75.8245 44.9193 77.1012 44.373 78.6232 44.3837C80.4806 44.3967 81.5141 45.0349 82.733 46.9217C83.4771 48.0734 83.972 48.3423 84.4908 47.8765C85.4594 47.0068 83.8121 44.3662 81.6754 43.3636C80.8319 42.9678 80.4355 42.8717 78.9317 42.6986C78.7196 42.6741 78.0949 42.706 77.5435 42.7693ZM99.0609 42.7722C94.9398 43.1636 92.4036 46.6388 92.7095 51.4756C93.014 56.2874 95.7673 58.986 100.362 58.9757C102.528 58.971 104.309 58.2697 105.602 56.9123C106.928 55.5216 107.575 53.8655 107.726 51.4756C107.936 48.1496 106.711 45.2323 104.509 43.8206C103.098 42.9158 101.265 42.563 99.0609 42.7722ZM0.724583 43.1475C0.4855 43.7716 0.530232 58.0406 0.772863 58.5189C1.0266 59.0194 1.92972 59.1306 2.31441 58.7088C2.53884 58.4627 2.5791 57.9445 2.61504 54.8369L2.65653 51.2491L6.85976 51.2084L11.063 51.1677V54.6238C11.063 58.6381 11.1474 58.9699 12.1703 58.9757C13.0944 58.9809 13.0682 59.2162 13.0682 50.922C13.0682 45.993 13.0124 43.2436 12.9086 43.0509C12.7022 42.6683 11.6605 42.6392 11.3517 43.0075C11.1936 43.1963 11.1207 44.0565 11.063 46.4128L10.9859 49.5656H6.8212H2.65653L2.5794 46.3516C2.53699 44.5839 2.44613 43.0515 2.37749 42.9462C2.30839 42.8402 1.9456 42.7549 1.56384 42.7549C0.966443 42.7549 0.855076 42.807 0.724583 43.1475ZM41.9086 43.1475C41.8185 43.3826 41.7582 46.4533 41.7582 50.7999C41.7582 57.8557 41.7668 58.0683 42.0667 58.3658C42.3614 58.6583 42.5808 58.6719 46.9731 58.6719C52.0177 58.6719 52.1624 58.6479 52.0674 57.8262C51.9783 57.0556 51.6374 56.9932 47.5039 56.9907L43.7634 56.9884V50.1677C43.7634 45.7587 43.7069 43.2424 43.6037 43.0509C43.4822 42.8258 43.2783 42.7549 42.7515 42.7549C42.1501 42.7549 42.0392 42.8065 41.9086 43.1475ZM60.4275 43.0509C60.3236 43.2435 60.2678 45.9621 60.2678 50.8224C60.2678 59.1631 60.2451 58.978 61.2704 58.978C62.2948 58.978 62.273 59.1531 62.273 50.9162C62.273 45.6404 62.222 43.4233 62.0939 43.1448C61.9426 42.8149 61.8129 42.7549 61.2511 42.7549C60.7526 42.7549 60.5473 42.8287 60.4275 43.0509ZM116.476 43.0771C116.196 43.3847 116.182 43.74 116.182 50.9715C116.182 58.2904 116.192 58.5509 116.482 58.7609C116.897 59.0621 117.55 59.0322 117.855 58.6981C118.084 58.4476 118.11 57.7791 118.11 52.3108V46.2034L122.277 52.3994C124.568 55.8072 126.559 58.6816 126.702 58.7867C127.086 59.0699 127.897 59.0189 128.312 58.6856L128.676 58.3931L128.721 50.9384C128.771 42.505 128.802 42.7549 127.679 42.7549C127.347 42.7549 127.019 42.8411 126.95 42.9462C126.882 43.0515 126.791 45.9192 126.748 49.3192L126.671 55.5006L122.605 49.4441C120.368 46.113 118.404 43.2451 118.241 43.0713C117.834 42.6374 116.874 42.6406 116.476 43.0771ZM23.1939 43.052C22.8669 43.1175 22.5382 43.2669 22.4635 43.384C22.3889 43.5009 22.3267 46.8814 22.3253 50.896L22.323 58.1955L22.6659 58.4336C22.9591 58.6375 23.7355 58.6719 28.035 58.6719C33.5422 58.6719 33.6536 58.6549 33.5578 57.8262C33.4674 57.0441 33.1609 56.9932 28.5315 56.9907L24.3282 56.9884V54.157V51.3256H28.2506C32.5445 51.3256 32.7285 51.288 32.6273 50.4298C32.5433 49.7165 32.1388 49.6468 28.0687 49.6444L24.3282 49.6421V47.1168V44.5915H28.5031C31.0858 44.5915 32.7916 44.5311 32.9763 44.4331C33.3486 44.2354 33.3748 43.4873 33.0198 43.1945C32.8183 43.0286 31.8246 42.9792 28.2767 42.9588C25.8081 42.9446 23.5209 42.9865 23.1939 43.052ZM102.305 44.8038C104.464 45.7842 105.616 47.885 105.616 50.8383C105.616 53.1448 105.034 54.6578 103.655 55.9382C101.228 58.1908 97.4045 57.5585 95.6607 54.6162C94.5798 52.7921 94.5461 49.2244 95.5907 47.1927C96.8552 44.7334 99.8246 43.6769 102.305 44.8038Z" fill="white" stroke="#FFF8F8" stroke-width="200" mask="url(#path-1-inside-1_1_3638)"/>
</svg>
