<svg width="44" height="43" viewBox="0 0 44 43" fill="none" xmlns="http://www.w3.org/2000/svg">
<path d="M36.1305 21.5V39.4167H7.46387V21.5" stroke="#F82C2C" stroke-width="4" stroke-linecap="round" stroke-linejoin="round"/>
<path d="M39.7142 12.542H3.88086V21.5003H39.7142V12.542Z" stroke="#F82C2C" stroke-width="4" stroke-linecap="round" stroke-linejoin="round"/>
<path d="M21.7974 39.417V12.542" stroke="#F82C2C" stroke-width="4" stroke-linecap="round" stroke-linejoin="round"/>
<path d="M21.7975 12.5413H13.735C12.5471 12.5413 11.4078 12.0694 10.5678 11.2294C9.72777 10.3894 9.25586 9.25012 9.25586 8.06217C9.25586 6.87423 9.72777 5.73493 10.5678 4.89493C11.4078 4.05492 12.5471 3.58301 13.735 3.58301C20.0059 3.58301 21.7975 12.5413 21.7975 12.5413Z" stroke="#F82C2C" stroke-width="4" stroke-linecap="round" stroke-linejoin="round"/>
<path d="M21.7974 12.5413H29.8599C31.0478 12.5413 32.1871 12.0694 33.0271 11.2294C33.8671 10.3894 34.339 9.25012 34.339 8.06217C34.339 6.87423 33.8671 5.73493 33.0271 4.89493C32.1871 4.05492 31.0478 3.58301 29.8599 3.58301C23.589 3.58301 21.7974 12.5413 21.7974 12.5413Z" stroke="#F82C2C" stroke-width="4" stroke-linecap="round" stroke-linejoin="round"/>
</svg>
