<svg width="62" height="32" viewBox="0 0 62 32" fill="none" xmlns="http://www.w3.org/2000/svg">
<mask id="path-1-inside-1_1_242" fill="white">
<path fill-rule="evenodd" clip-rule="evenodd" d="M29.5209 0.313512C28.8862 0.460301 28.2754 0.74836 26.0485 1.95088L23.8248 3.15176L23.3408 3.09856C22.4277 2.99818 21.8218 3.03463 21.3043 3.22109C20.7348 3.42629 19.7949 3.86484 18.7771 4.40026C16.9648 5.35372 7.83573 10.4263 7.77912 10.5114C7.60142 10.7781 7.99855 11.0962 8.33005 10.9526C8.41684 10.9151 10.876 9.5679 13.7949 7.95898C19.4685 4.83159 20.2327 4.42694 21.2529 4.00981C21.9732 3.71526 22.3191 3.67959 23.2387 3.80497C23.5527 3.84779 23.7801 3.84707 23.976 3.80279C24.1318 3.76755 25.299 3.17912 26.5697 2.49515C29.247 1.05407 29.5713 0.926023 30.4384 0.96733C31.1695 1.00221 31.9183 1.21129 33.2077 1.74058C34.642 2.32925 34.6766 2.3466 43.6086 6.94116C48.1121 9.25776 51.8718 11.1819 51.9635 11.2169C52.2852 11.3401 52.6426 10.9872 52.442 10.7445C52.382 10.6719 36.5421 2.49636 35.2039 1.84728C33.4942 1.01798 32.0859 0.502579 31.0279 0.319032C30.3835 0.207181 29.9867 0.205725 29.5209 0.313512ZM36.0343 17.0923C34.6134 17.2304 33.5663 18.0249 33.1877 19.2523C33.0386 19.7358 33.0371 20.8235 33.185 21.3047C33.6546 22.8329 34.8597 23.5794 36.7305 23.5009C37.5149 23.4679 38.1314 23.2595 38.664 22.847C39.2511 22.3924 39.6854 21.4518 39.4135 21.2234C39.2997 21.1278 38.8874 21.1298 38.7971 21.2264C38.7581 21.2682 38.6707 21.4271 38.6028 21.5796C38.4148 22.0023 37.9974 22.4192 37.5506 22.6307C37.1837 22.8043 37.1013 22.8187 36.4675 22.8184C35.8624 22.8181 35.738 22.7988 35.4117 22.6545C35.2082 22.5644 34.9087 22.3639 34.7462 22.2087C33.7844 21.2908 33.7974 19.2827 34.7709 18.373C35.2296 17.9444 35.8273 17.7279 36.5397 17.7321C37.4092 17.7373 37.893 17.9902 38.4636 18.738C38.8119 19.1944 39.0436 19.301 39.2864 19.1164C39.7399 18.7717 38.9688 17.7252 37.9686 17.3278C37.5737 17.171 37.3881 17.1329 36.6842 17.0643C36.5849 17.0546 36.2924 17.0672 36.0343 17.0923ZM46.107 17.0935C44.1778 17.2486 42.9906 18.6259 43.1338 20.5428C43.2763 22.4499 44.5652 23.5194 46.716 23.5153C47.7299 23.5134 48.5635 23.2355 49.1692 22.6975C49.7896 22.1463 50.0925 21.49 50.1633 20.5428C50.2618 19.2246 49.6879 18.0685 48.6574 17.509C47.9969 17.1504 47.1388 17.0105 46.107 17.0935ZM0.0740453 17.2422C-0.0378736 17.4895 -0.0169337 23.1447 0.096646 23.3342C0.215424 23.5326 0.638189 23.5767 0.81827 23.4095C0.923329 23.312 0.942175 23.1066 0.958999 21.875L0.978422 20.453L2.94603 20.4369L4.91363 20.4208V21.7905C4.91363 23.3815 4.95313 23.513 5.432 23.5153C5.86458 23.5174 5.85231 23.6106 5.85231 20.3234C5.85231 18.3699 5.82617 17.2803 5.77758 17.2039C5.68096 17.0523 5.19336 17.0407 5.0488 17.1867C4.97479 17.2615 4.94064 17.6024 4.91363 18.5363L4.87753 19.7858H2.92798H0.978422L0.942319 18.512C0.922463 17.8114 0.879933 17.2042 0.847802 17.1624C0.815453 17.1204 0.645626 17.0866 0.466917 17.0866C0.187264 17.0866 0.135131 17.1072 0.0740453 17.2422ZM19.353 17.2422C19.3108 17.3354 19.2826 18.5524 19.2826 20.275C19.2826 23.0714 19.2866 23.1557 19.427 23.2736C19.565 23.3895 19.6676 23.3949 21.7238 23.3949C24.0853 23.3949 24.153 23.3854 24.1085 23.0597C24.0668 22.7543 23.9072 22.7296 21.9722 22.7286L20.2213 22.7277V20.0244C20.2213 18.277 20.1948 17.2798 20.1465 17.2039C20.0896 17.1147 19.9942 17.0866 19.7476 17.0866C19.4661 17.0866 19.4141 17.107 19.353 17.2422ZM28.022 17.2039C27.9734 17.2802 27.9473 18.3577 27.9473 20.2839C27.9473 23.5895 27.9367 23.5162 28.4166 23.5162C28.8961 23.5162 28.8859 23.5856 28.8859 20.3211C28.8859 18.2302 28.862 17.3515 28.8021 17.2411C28.7313 17.1104 28.6705 17.0866 28.4076 17.0866C28.1742 17.0866 28.0781 17.1158 28.022 17.2039ZM54.2594 17.2143C54.1281 17.3362 54.1218 17.477 54.1218 20.343C54.1218 23.2437 54.1265 23.3469 54.262 23.4301C54.4564 23.5495 54.7622 23.5377 54.9049 23.4053C55.0119 23.306 55.0244 23.041 55.0244 20.8738V18.4533L56.9746 20.9089C58.0472 22.2595 58.9795 23.3987 59.0463 23.4404C59.2261 23.5526 59.6058 23.5324 59.8 23.4003L59.9705 23.2844L59.9912 20.3299C60.0146 16.9875 60.0295 17.0866 59.5038 17.0866C59.3482 17.0866 59.1946 17.1208 59.1625 17.1624C59.1303 17.2042 59.0878 18.3407 59.0679 19.6882L59.0318 22.138L57.1282 19.7377C56.0812 18.4175 55.162 17.2809 55.0856 17.212C54.8949 17.04 54.4458 17.0413 54.2594 17.2143ZM10.5923 17.2043C10.4392 17.2303 10.2854 17.2895 10.2504 17.3359C10.2155 17.3822 10.1864 18.722 10.1857 20.3131L10.1847 23.2061L10.3452 23.3005C10.4824 23.3812 10.8458 23.3949 12.8585 23.3949C15.4365 23.3949 15.4887 23.3882 15.4438 23.0597C15.4015 22.7498 15.258 22.7296 13.0909 22.7286L11.1233 22.7277V21.6055V20.4834H12.9594C14.9695 20.4834 15.0557 20.4685 15.0083 20.1284C14.9689 19.8456 14.7796 19.818 12.8743 19.8171L11.1233 19.8162V18.8153V17.8145H13.0776C14.2867 17.8145 15.0852 17.7905 15.1716 17.7517C15.3459 17.6733 15.3582 17.3768 15.192 17.2608C15.0977 17.1951 14.6325 17.1755 12.9716 17.1674C11.8161 17.1618 10.7454 17.1784 10.5923 17.2043ZM47.6258 17.8986C48.6362 18.2872 49.1758 19.1198 49.1758 20.2902C49.1758 21.2043 48.9033 21.804 48.2576 22.3114C47.1214 23.2042 45.3316 22.9536 44.5153 21.7875C44.0093 21.0646 43.9935 19.6506 44.4825 18.8454C45.0745 17.8707 46.4645 17.452 47.6258 17.8986Z"/>
</mask>
<path fill-rule="evenodd" clip-rule="evenodd" d="M29.5209 0.313512C28.8862 0.460301 28.2754 0.74836 26.0485 1.95088L23.8248 3.15176L23.3408 3.09856C22.4277 2.99818 21.8218 3.03463 21.3043 3.22109C20.7348 3.42629 19.7949 3.86484 18.7771 4.40026C16.9648 5.35372 7.83573 10.4263 7.77912 10.5114C7.60142 10.7781 7.99855 11.0962 8.33005 10.9526C8.41684 10.9151 10.876 9.5679 13.7949 7.95898C19.4685 4.83159 20.2327 4.42694 21.2529 4.00981C21.9732 3.71526 22.3191 3.67959 23.2387 3.80497C23.5527 3.84779 23.7801 3.84707 23.976 3.80279C24.1318 3.76755 25.299 3.17912 26.5697 2.49515C29.247 1.05407 29.5713 0.926023 30.4384 0.96733C31.1695 1.00221 31.9183 1.21129 33.2077 1.74058C34.642 2.32925 34.6766 2.3466 43.6086 6.94116C48.1121 9.25776 51.8718 11.1819 51.9635 11.2169C52.2852 11.3401 52.6426 10.9872 52.442 10.7445C52.382 10.6719 36.5421 2.49636 35.2039 1.84728C33.4942 1.01798 32.0859 0.502579 31.0279 0.319032C30.3835 0.207181 29.9867 0.205725 29.5209 0.313512ZM36.0343 17.0923C34.6134 17.2304 33.5663 18.0249 33.1877 19.2523C33.0386 19.7358 33.0371 20.8235 33.185 21.3047C33.6546 22.8329 34.8597 23.5794 36.7305 23.5009C37.5149 23.4679 38.1314 23.2595 38.664 22.847C39.2511 22.3924 39.6854 21.4518 39.4135 21.2234C39.2997 21.1278 38.8874 21.1298 38.7971 21.2264C38.7581 21.2682 38.6707 21.4271 38.6028 21.5796C38.4148 22.0023 37.9974 22.4192 37.5506 22.6307C37.1837 22.8043 37.1013 22.8187 36.4675 22.8184C35.8624 22.8181 35.738 22.7988 35.4117 22.6545C35.2082 22.5644 34.9087 22.3639 34.7462 22.2087C33.7844 21.2908 33.7974 19.2827 34.7709 18.373C35.2296 17.9444 35.8273 17.7279 36.5397 17.7321C37.4092 17.7373 37.893 17.9902 38.4636 18.738C38.8119 19.1944 39.0436 19.301 39.2864 19.1164C39.7399 18.7717 38.9688 17.7252 37.9686 17.3278C37.5737 17.171 37.3881 17.1329 36.6842 17.0643C36.5849 17.0546 36.2924 17.0672 36.0343 17.0923ZM46.107 17.0935C44.1778 17.2486 42.9906 18.6259 43.1338 20.5428C43.2763 22.4499 44.5652 23.5194 46.716 23.5153C47.7299 23.5134 48.5635 23.2355 49.1692 22.6975C49.7896 22.1463 50.0925 21.49 50.1633 20.5428C50.2618 19.2246 49.6879 18.0685 48.6574 17.509C47.9969 17.1504 47.1388 17.0105 46.107 17.0935ZM0.0740453 17.2422C-0.0378736 17.4895 -0.0169337 23.1447 0.096646 23.3342C0.215424 23.5326 0.638189 23.5767 0.81827 23.4095C0.923329 23.312 0.942175 23.1066 0.958999 21.875L0.978422 20.453L2.94603 20.4369L4.91363 20.4208V21.7905C4.91363 23.3815 4.95313 23.513 5.432 23.5153C5.86458 23.5174 5.85231 23.6106 5.85231 20.3234C5.85231 18.3699 5.82617 17.2803 5.77758 17.2039C5.68096 17.0523 5.19336 17.0407 5.0488 17.1867C4.97479 17.2615 4.94064 17.6024 4.91363 18.5363L4.87753 19.7858H2.92798H0.978422L0.942319 18.512C0.922463 17.8114 0.879933 17.2042 0.847802 17.1624C0.815453 17.1204 0.645626 17.0866 0.466917 17.0866C0.187264 17.0866 0.135131 17.1072 0.0740453 17.2422ZM19.353 17.2422C19.3108 17.3354 19.2826 18.5524 19.2826 20.275C19.2826 23.0714 19.2866 23.1557 19.427 23.2736C19.565 23.3895 19.6676 23.3949 21.7238 23.3949C24.0853 23.3949 24.153 23.3854 24.1085 23.0597C24.0668 22.7543 23.9072 22.7296 21.9722 22.7286L20.2213 22.7277V20.0244C20.2213 18.277 20.1948 17.2798 20.1465 17.2039C20.0896 17.1147 19.9942 17.0866 19.7476 17.0866C19.4661 17.0866 19.4141 17.107 19.353 17.2422ZM28.022 17.2039C27.9734 17.2802 27.9473 18.3577 27.9473 20.2839C27.9473 23.5895 27.9367 23.5162 28.4166 23.5162C28.8961 23.5162 28.8859 23.5856 28.8859 20.3211C28.8859 18.2302 28.862 17.3515 28.8021 17.2411C28.7313 17.1104 28.6705 17.0866 28.4076 17.0866C28.1742 17.0866 28.0781 17.1158 28.022 17.2039ZM54.2594 17.2143C54.1281 17.3362 54.1218 17.477 54.1218 20.343C54.1218 23.2437 54.1265 23.3469 54.262 23.4301C54.4564 23.5495 54.7622 23.5377 54.9049 23.4053C55.0119 23.306 55.0244 23.041 55.0244 20.8738V18.4533L56.9746 20.9089C58.0472 22.2595 58.9795 23.3987 59.0463 23.4404C59.2261 23.5526 59.6058 23.5324 59.8 23.4003L59.9705 23.2844L59.9912 20.3299C60.0146 16.9875 60.0295 17.0866 59.5038 17.0866C59.3482 17.0866 59.1946 17.1208 59.1625 17.1624C59.1303 17.2042 59.0878 18.3407 59.0679 19.6882L59.0318 22.138L57.1282 19.7377C56.0812 18.4175 55.162 17.2809 55.0856 17.212C54.8949 17.04 54.4458 17.0413 54.2594 17.2143ZM10.5923 17.2043C10.4392 17.2303 10.2854 17.2895 10.2504 17.3359C10.2155 17.3822 10.1864 18.722 10.1857 20.3131L10.1847 23.2061L10.3452 23.3005C10.4824 23.3812 10.8458 23.3949 12.8585 23.3949C15.4365 23.3949 15.4887 23.3882 15.4438 23.0597C15.4015 22.7498 15.258 22.7296 13.0909 22.7286L11.1233 22.7277V21.6055V20.4834H12.9594C14.9695 20.4834 15.0557 20.4685 15.0083 20.1284C14.9689 19.8456 14.7796 19.818 12.8743 19.8171L11.1233 19.8162V18.8153V17.8145H13.0776C14.2867 17.8145 15.0852 17.7905 15.1716 17.7517C15.3459 17.6733 15.3582 17.3768 15.192 17.2608C15.0977 17.1951 14.6325 17.1755 12.9716 17.1674C11.8161 17.1618 10.7454 17.1784 10.5923 17.2043ZM47.6258 17.8986C48.6362 18.2872 49.1758 19.1198 49.1758 20.2902C49.1758 21.2043 48.9033 21.804 48.2576 22.3114C47.1214 23.2042 45.3316 22.9536 44.5153 21.7875C44.0093 21.0646 43.9935 19.6506 44.4825 18.8454C45.0745 17.8707 46.4645 17.452 47.6258 17.8986Z" fill="white" stroke="white" stroke-width="200" mask="url(#path-1-inside-1_1_242)"/>
<path d="M2.136 30.5745C1.91733 30.7879 1.64267 30.8945 1.312 30.8945C0.981333 30.8945 0.705333 30.7879 0.484 30.5745C0.265333 30.3585 0.156 30.0879 0.156 29.7625C0.156 29.5492 0.205333 29.3559 0.304 29.1825C0.405333 29.0092 0.544 28.8745 0.72 28.7785C0.898667 28.6799 1.096 28.6305 1.312 28.6305C1.528 28.6305 1.724 28.6799 1.9 28.7785C2.07867 28.8745 2.21733 29.0092 2.316 29.1825C2.41733 29.3559 2.468 29.5492 2.468 29.7625C2.468 30.0879 2.35733 30.3585 2.136 30.5745ZM1.312 30.4705C1.448 30.4705 1.56933 30.4412 1.676 30.3825C1.78267 30.3212 1.86533 30.2372 1.924 30.1305C1.98533 30.0212 2.016 29.8985 2.016 29.7625C2.016 29.5572 1.94933 29.3879 1.816 29.2545C1.68533 29.1212 1.51733 29.0545 1.312 29.0545C1.10667 29.0545 0.937333 29.1212 0.804 29.2545C0.673333 29.3879 0.608 29.5572 0.608 29.7625C0.608 29.9679 0.673333 30.1372 0.804 30.2705C0.937333 30.4039 1.10667 30.4705 1.312 30.4705ZM5.429 29.7705C5.429 30.0879 5.32367 30.3505 5.113 30.5585C4.905 30.7665 4.63967 30.8785 4.317 30.8945V31.5225H3.893V30.8945C3.57033 30.8785 3.30367 30.7665 3.093 30.5585C2.885 30.3505 2.781 30.0879 2.781 29.7705C2.781 29.4532 2.88633 29.1879 3.097 28.9745C3.30767 28.7612 3.573 28.6465 3.893 28.6305V28.0265H4.317V28.6305C4.637 28.6465 4.90233 28.7612 5.113 28.9745C5.32367 29.1852 5.429 29.4505 5.429 29.7705ZM3.217 29.7665C3.217 29.9639 3.27967 30.1292 3.405 30.2625C3.533 30.3959 3.697 30.4692 3.897 30.4825V29.0425C3.697 29.0559 3.533 29.1305 3.405 29.2665C3.27967 29.4025 3.217 29.5692 3.217 29.7665ZM4.313 30.4825C4.513 30.4692 4.67567 30.3959 4.801 30.2625C4.929 30.1292 4.993 29.9639 4.993 29.7665C4.993 29.5692 4.929 29.4025 4.801 29.2665C4.673 29.1305 4.51033 29.0559 4.313 29.0425V30.4825ZM7.48594 28.6825H7.73394V30.8425H7.30994V29.4705L6.15794 30.8425H5.90194V28.6825H6.32994V30.0425L7.48594 28.6825ZM10.1828 30.4345H10.4708V31.3865H10.0668V30.8425H8.36678V28.6825H8.80278V30.4345H9.74678V28.6825H10.1828V30.4345ZM12.525 28.6825H12.773V30.8425H12.349V29.4705L11.197 30.8425H10.941V28.6825H11.369V30.0425L12.525 28.6825ZM15.2138 28.6825H15.5578V30.8425H15.1978L15.1538 30.5785C14.9458 30.7892 14.6858 30.8945 14.3738 30.8945C14.0512 30.8945 13.7818 30.7865 13.5658 30.5705C13.3525 30.3545 13.2458 30.0852 13.2458 29.7625C13.2458 29.4372 13.3525 29.1679 13.5658 28.9545C13.7818 28.7385 14.0512 28.6305 14.3738 28.6305C14.6912 28.6305 14.9538 28.7372 15.1618 28.9505L15.2138 28.6825ZM13.8978 30.2705C14.0338 30.4039 14.2032 30.4705 14.4058 30.4705C14.6112 30.4705 14.7792 30.4039 14.9098 30.2705C15.0432 30.1345 15.1098 29.9652 15.1098 29.7625C15.1098 29.5572 15.0432 29.3879 14.9098 29.2545C14.7792 29.1212 14.6112 29.0545 14.4058 29.0545C14.2725 29.0545 14.1512 29.0852 14.0418 29.1465C13.9352 29.2079 13.8512 29.2932 13.7898 29.4025C13.7285 29.5092 13.6978 29.6292 13.6978 29.7625C13.6978 29.9652 13.7645 30.1345 13.8978 30.2705ZM16.571 28.6825H18.039V30.8425H17.603V29.0665H16.935L16.839 30.0225C16.8097 30.3265 16.731 30.5412 16.603 30.6665C16.4777 30.7919 16.287 30.8545 16.031 30.8545H15.955V30.4465H16.059C16.2697 30.4465 16.3883 30.3145 16.415 30.0505L16.571 28.6825ZM19.5675 29.3225C19.8048 29.3225 19.9968 29.3932 20.1435 29.5345C20.2901 29.6759 20.3635 29.8599 20.3635 30.0865C20.3635 30.3105 20.2901 30.4932 20.1435 30.6345C19.9968 30.7732 19.8048 30.8425 19.5675 30.8425H18.6715V28.6825H19.1075V29.3225H19.5675ZM19.5155 30.4585C19.6355 30.4585 19.7328 30.4252 19.8075 30.3585C19.8821 30.2892 19.9195 30.1985 19.9195 30.0865C19.9195 30.0119 19.9021 29.9465 19.8675 29.8905C19.8355 29.8319 19.7888 29.7865 19.7275 29.7545C19.6661 29.7225 19.5955 29.7065 19.5155 29.7065H19.1075V30.4585H19.5155ZM22.2287 28.6825H22.6647V30.8425H22.2287V29.9385H21.2287V30.8425H20.7887V28.6825H21.2287V29.5305H22.2287V28.6825ZM24.1925 29.3225C24.4298 29.3225 24.6218 29.3932 24.7685 29.5345C24.9151 29.6759 24.9885 29.8599 24.9885 30.0865C24.9885 30.3105 24.9151 30.4932 24.7685 30.6345C24.6218 30.7732 24.4298 30.8425 24.1925 30.8425H23.2965V28.6825H23.7325V29.3225H24.1925ZM25.3645 28.6825H25.8085V30.8425H25.3645V28.6825ZM24.1405 30.4585C24.2605 30.4585 24.3578 30.4252 24.4325 30.3585C24.5071 30.2892 24.5445 30.1985 24.5445 30.0865C24.5445 30.0119 24.5271 29.9465 24.4925 29.8905C24.4605 29.8319 24.4138 29.7865 24.3525 29.7545C24.2911 29.7225 24.2205 29.7065 24.1405 29.7065H23.7325V30.4585H24.1405ZM27.909 27.9705V28.3025H26.837V27.9705H27.909ZM28.025 28.6825H28.273V30.8425H27.849V29.4705L26.697 30.8425H26.441V28.6825H26.869V30.0425L28.025 28.6825ZM29.9137 28.6825H31.7977V30.8425H31.3577V29.0865H30.3577V30.8425H29.9137V28.6825ZM33.5893 28.6305C33.8026 28.6305 33.9946 28.6799 34.1653 28.7785C34.3359 28.8745 34.4693 29.0092 34.5653 29.1825C34.6613 29.3559 34.7093 29.5492 34.7093 29.7625C34.7093 30.0879 34.6026 30.3585 34.3893 30.5745C34.1786 30.7879 33.9119 30.8945 33.5893 30.8945C33.3119 30.8945 33.0733 30.8079 32.8733 30.6345V31.6185H32.4293V28.6825H32.7293L32.8133 28.9465C33.0213 28.7359 33.2799 28.6305 33.5893 28.6305ZM33.0493 30.2705C33.1826 30.4039 33.3506 30.4705 33.5533 30.4705C33.7586 30.4705 33.9279 30.4039 34.0613 30.2705C34.1946 30.1345 34.2613 29.9652 34.2613 29.7625C34.2613 29.5599 34.1946 29.3919 34.0613 29.2585C33.9279 29.1225 33.7599 29.0545 33.5573 29.0545C33.4239 29.0545 33.3026 29.0852 33.1933 29.1465C33.0839 29.2079 32.9986 29.2932 32.9373 29.4025C32.8786 29.5092 32.8493 29.6292 32.8493 29.7625C32.8493 29.9652 32.9159 30.1345 33.0493 30.2705ZM37.0071 30.5745C36.7884 30.7879 36.5138 30.8945 36.1831 30.8945C35.8524 30.8945 35.5764 30.7879 35.3551 30.5745C35.1364 30.3585 35.0271 30.0879 35.0271 29.7625C35.0271 29.5492 35.0764 29.3559 35.1751 29.1825C35.2764 29.0092 35.4151 28.8745 35.5911 28.7785C35.7698 28.6799 35.9671 28.6305 36.1831 28.6305C36.3991 28.6305 36.5951 28.6799 36.7711 28.7785C36.9498 28.8745 37.0884 29.0092 37.1871 29.1825C37.2884 29.3559 37.3391 29.5492 37.3391 29.7625C37.3391 30.0879 37.2284 30.3585 37.0071 30.5745ZM36.1831 30.4705C36.3191 30.4705 36.4404 30.4412 36.5471 30.3825C36.6538 30.3212 36.7364 30.2372 36.7951 30.1305C36.8564 30.0212 36.8871 29.8985 36.8871 29.7625C36.8871 29.5572 36.8204 29.3879 36.6871 29.2545C36.5564 29.1212 36.3884 29.0545 36.1831 29.0545C35.9778 29.0545 35.8084 29.1212 35.6751 29.2545C35.5444 29.3879 35.4791 29.5572 35.4791 29.7625C35.4791 29.9679 35.5444 30.1372 35.6751 30.2705C35.8084 30.4039 35.9778 30.4705 36.1831 30.4705ZM39.3961 28.6825H39.6441V30.8425H39.2201V29.4705L38.0681 30.8425H37.8121V28.6825H38.2401V30.0425L39.3961 28.6825ZM41.4849 29.6945C41.6743 29.8065 41.7689 29.9812 41.7689 30.2185C41.7689 30.4185 41.6889 30.5812 41.5289 30.7065C41.3689 30.8319 41.1636 30.8945 40.9129 30.8945C40.6703 30.8945 40.4716 30.8319 40.3169 30.7065C40.1649 30.5785 40.0823 30.4079 40.0689 30.1945H40.4729C40.4889 30.2879 40.5356 30.3612 40.6129 30.4145C40.6903 30.4679 40.7903 30.4945 40.9129 30.4945C41.0383 30.4945 41.1396 30.4665 41.2169 30.4105C41.2943 30.3519 41.3329 30.2772 41.3329 30.1865C41.3329 30.0985 41.2983 30.0265 41.2289 29.9705C41.1623 29.9145 41.0729 29.8865 40.9609 29.8865H40.6809V29.5425H40.9609C41.0623 29.5425 41.1423 29.5199 41.2009 29.4745C41.2596 29.4265 41.2889 29.3625 41.2889 29.2825C41.2889 29.1972 41.2543 29.1292 41.1849 29.0785C41.1156 29.0279 41.0236 29.0025 40.9089 29.0025C40.8049 29.0025 40.7183 29.0265 40.6489 29.0745C40.5823 29.1225 40.5423 29.1892 40.5289 29.2745H40.1249C40.1356 29.0825 40.2143 28.9279 40.3609 28.8105C40.5103 28.6905 40.6969 28.6305 40.9209 28.6305C41.1503 28.6305 41.3383 28.6892 41.4849 28.8065C41.6343 28.9239 41.7089 29.0719 41.7089 29.2505C41.7089 29.4425 41.6343 29.5905 41.4849 29.6945ZM43.7175 29.7145C43.7682 29.7359 43.8135 29.7639 43.8535 29.7985C43.8962 29.8305 43.9322 29.8692 43.9615 29.9145C43.9908 29.9572 44.0135 30.0052 44.0295 30.0585C44.0455 30.1119 44.0535 30.1665 44.0535 30.2225C44.0535 30.3985 43.9895 30.5465 43.8615 30.6665C43.7335 30.7839 43.5735 30.8425 43.3815 30.8425H42.2535V28.6825H43.3655C43.5468 28.6825 43.6948 28.7345 43.8095 28.8385C43.9268 28.9399 43.9855 29.0719 43.9855 29.2345C43.9855 29.3359 43.9615 29.4292 43.9135 29.5145C43.8655 29.5999 43.8002 29.6665 43.7175 29.7145ZM43.5455 29.3065C43.5455 29.2319 43.5202 29.1719 43.4695 29.1265C43.4215 29.0812 43.3575 29.0585 43.2775 29.0585H42.6895V29.5545H43.2775C43.3575 29.5545 43.4215 29.5319 43.4695 29.4865C43.5202 29.4412 43.5455 29.3812 43.5455 29.3065ZM43.3015 30.4545C43.3895 30.4545 43.4602 30.4292 43.5135 30.3785C43.5695 30.3279 43.5975 30.2639 43.5975 30.1865C43.5975 30.1065 43.5695 30.0412 43.5135 29.9905C43.4575 29.9399 43.3855 29.9145 43.2975 29.9145H42.6895V30.4545H43.3015ZM46.3743 30.5745C46.1556 30.7879 45.8809 30.8945 45.5503 30.8945C45.2196 30.8945 44.9436 30.7879 44.7223 30.5745C44.5036 30.3585 44.3943 30.0879 44.3943 29.7625C44.3943 29.5492 44.4436 29.3559 44.5423 29.1825C44.6436 29.0092 44.7823 28.8745 44.9583 28.7785C45.1369 28.6799 45.3343 28.6305 45.5503 28.6305C45.7663 28.6305 45.9623 28.6799 46.1383 28.7785C46.3169 28.8745 46.4556 29.0092 46.5543 29.1825C46.6556 29.3559 46.7063 29.5492 46.7063 29.7625C46.7063 30.0879 46.5956 30.3585 46.3743 30.5745ZM45.5503 30.4705C45.6863 30.4705 45.8076 30.4412 45.9143 30.3825C46.0209 30.3212 46.1036 30.2372 46.1623 30.1305C46.2236 30.0212 46.2543 29.8985 46.2543 29.7625C46.2543 29.5572 46.1876 29.3879 46.0543 29.2545C45.9236 29.1212 45.7556 29.0545 45.5503 29.0545C45.3449 29.0545 45.1756 29.1212 45.0423 29.2545C44.9116 29.3879 44.8463 29.5572 44.8463 29.7625C44.8463 29.9679 44.9116 30.1372 45.0423 30.2705C45.1756 30.4039 45.3449 30.4705 45.5503 30.4705ZM49.0123 30.4225H49.2923V31.3865H48.8883V30.8425H47.3123V31.3865H46.9083V30.4225H47.1363C47.1976 30.3719 47.2443 30.2945 47.2763 30.1905C47.311 30.0865 47.3416 29.9292 47.3683 29.7185C47.395 29.5052 47.4296 29.1599 47.4723 28.6825H49.0123V30.4225ZM47.8643 29.0745C47.835 29.5092 47.8016 29.8212 47.7643 30.0105C47.727 30.1999 47.6723 30.3372 47.6003 30.4225H48.5763V29.0745H47.8643ZM51.3531 28.6825H51.6011V30.8425H51.1771V29.4705L50.0251 30.8425H49.7691V28.6825H50.1971V30.0425L51.3531 28.6825ZM53.942 28.6825V29.0825H53.182V30.8425H52.75V29.0825H51.986V28.6825H53.942ZM56.3211 29.7665C56.3211 29.8065 56.3185 29.8559 56.3131 29.9145H54.5611C54.5878 30.0879 54.6598 30.2252 54.7771 30.3265C54.8971 30.4279 55.0451 30.4785 55.2211 30.4785C55.3065 30.4785 55.3865 30.4665 55.4611 30.4425C55.5358 30.4159 55.6011 30.3799 55.6571 30.3345C55.7158 30.2865 55.7638 30.2292 55.8011 30.1625H56.2691C56.1838 30.3919 56.0478 30.5719 55.8611 30.7025C55.6745 30.8305 55.4611 30.8945 55.2211 30.8945C54.9038 30.8945 54.6385 30.7865 54.4251 30.5705C54.2145 30.3545 54.1091 30.0852 54.1091 29.7625C54.1091 29.4399 54.2145 29.1705 54.4251 28.9545C54.6385 28.7385 54.9038 28.6305 55.2211 28.6305C55.4371 28.6305 55.6291 28.6825 55.7971 28.7865C55.9651 28.8879 56.0945 29.0252 56.1851 29.1985C56.2758 29.3692 56.3211 29.5585 56.3211 29.7665ZM55.2211 29.0305C55.0558 29.0305 54.9145 29.0772 54.7971 29.1705C54.6825 29.2639 54.6065 29.3919 54.5691 29.5545H55.8771C55.8505 29.4452 55.8065 29.3519 55.7451 29.2745C55.6838 29.1945 55.6078 29.1345 55.5171 29.0945C55.4291 29.0519 55.3305 29.0305 55.2211 29.0305ZM57.1296 28.6825H58.5976V30.8425H58.1616V29.0665H57.4936L57.3976 30.0225C57.3683 30.3265 57.2896 30.5412 57.1616 30.6665C57.0363 30.7919 56.8456 30.8545 56.5896 30.8545H56.5136V30.4465H56.6176C56.8283 30.4465 56.9469 30.3145 56.9736 30.0505L57.1296 28.6825ZM60.1261 29.3225C60.3634 29.3225 60.5554 29.3932 60.7021 29.5345C60.8487 29.6759 60.9221 29.8599 60.9221 30.0865C60.9221 30.3105 60.8487 30.4932 60.7021 30.6345C60.5554 30.7732 60.3634 30.8425 60.1261 30.8425H59.2301V28.6825H59.6661V29.3225H60.1261ZM60.0741 30.4585C60.1941 30.4585 60.2914 30.4252 60.3661 30.3585C60.4407 30.2892 60.4781 30.1985 60.4781 30.0865C60.4781 30.0119 60.4607 29.9465 60.4261 29.8905C60.3941 29.8319 60.3474 29.7865 60.2861 29.7545C60.2247 29.7225 60.1541 29.7065 60.0741 29.7065H59.6661V30.4585H60.0741Z" fill="white"/>
</svg>
