<svg width="60" height="56" viewBox="0 0 60 56" fill="none" xmlns="http://www.w3.org/2000/svg">
<path d="M3.50017 0.000141269L6.0621 5.1741L0.300354 4.80582L3.50017 0.000141269ZM59.4734 54.5009C59.7492 54.4858 59.9849 54.6971 60 54.9729C60.0151 55.2486 59.8038 55.4844 59.528 55.4994L59.4734 54.5009ZM15.0008 44.5L14.6512 44.8575L15.0008 44.5ZM3.85866 2.95986C3.84248 3.53843 3.82995 4.19233 3.82496 4.91181L2.82498 4.90486C2.83003 4.178 2.84269 3.51709 2.85905 2.93191L3.85866 2.95986ZM3.83065 6.86182C3.83855 7.48546 3.85265 8.142 3.87463 8.8272L2.87515 8.85928C2.85294 8.16731 2.8387 7.5043 2.83073 6.87448L3.83065 6.86182ZM3.95625 10.7798C3.9889 11.4129 4.02855 12.0643 4.07631 12.7314L3.07886 12.8028C3.03061 12.1288 2.99055 11.4707 2.95758 10.8313L3.95625 10.7798ZM4.23617 14.6828C4.29523 15.3218 4.36201 15.9718 4.43734 16.6307L3.44381 16.7443C3.36762 16.0779 3.30011 15.4207 3.24042 14.7749L4.23617 14.6828ZM4.68168 18.5728C4.76962 19.2122 4.86599 19.8576 4.97148 20.5074L3.98441 20.6677C3.87756 20.0096 3.78001 19.3561 3.69101 18.7091L4.68168 18.5728ZM5.30943 22.4328C5.42969 23.0689 5.55917 23.7074 5.69852 24.3465L4.72147 24.5595C4.58007 23.9109 4.44875 23.2634 4.32684 22.6186L5.30943 22.4328ZM6.14249 26.2472C6.29971 26.877 6.46713 27.5057 6.64534 28.132L5.68352 28.4057C5.50221 27.7685 5.33201 27.1293 5.17227 26.4894L6.14249 26.2472ZM7.21154 29.9974C7.4115 30.6159 7.62279 31.2302 7.84601 31.8389L6.90716 32.1832C6.67928 31.5618 6.46379 30.9352 6.26003 30.305L7.21154 29.9974ZM8.55413 33.6514C8.80376 34.2516 9.06607 34.8445 9.34168 35.4284L8.43736 35.8553C8.15477 35.2566 7.88614 34.6494 7.63079 34.0354L8.55413 33.6514ZM10.2147 37.1623C10.5218 37.7342 10.8431 38.2953 11.1793 38.8438L10.3266 39.3663C9.98008 38.8009 9.64932 38.2233 9.33365 37.6354L10.2147 37.1623ZM12.2411 40.4619C12.6131 40.991 13.0009 41.5055 13.4053 42.0039L12.6288 42.634C12.2093 42.1171 11.8077 41.5841 11.423 41.037L12.2411 40.4619ZM14.6752 43.4555C14.8959 43.6891 15.1209 43.9182 15.3503 44.1426L14.6512 44.8575C14.4121 44.6237 14.1778 44.3852 13.9482 44.1421L14.6752 43.4555ZM15.3503 44.1426C15.5748 44.362 15.8058 44.577 16.0431 44.7877L15.3792 45.5356C15.1302 45.3145 14.8874 45.0885 14.6512 44.8575L15.3503 44.1426ZM17.5224 45.9869C18.0277 46.3619 18.5543 46.7212 19.1001 47.0653L18.5668 47.9113C18.0009 47.5544 17.4532 47.1809 16.9264 46.7899L17.5224 45.9869ZM20.7548 48.0322C21.3107 48.3336 21.8821 48.6216 22.467 48.8966L22.0414 49.8015C21.4403 49.5188 20.8519 49.2224 20.2782 48.9114L20.7548 48.0322ZM24.2268 49.6703C24.8159 49.9123 25.4156 50.1427 26.0242 50.3621L25.685 51.3028C25.0635 51.0788 24.4501 50.8431 23.8468 50.5952L24.2268 49.6703ZM27.8512 50.9803C28.462 51.1741 29.0794 51.3578 29.7018 51.5318L29.4325 52.4949C28.7996 52.3179 28.1711 52.1309 27.5488 51.9334L27.8512 50.9803ZM31.5714 52.023C32.1971 52.1773 32.8259 52.3225 33.4562 52.4593L33.2441 53.4366C32.6052 53.2979 31.9672 53.1506 31.332 52.994L31.5714 52.023ZM35.3533 52.8452C35.9898 52.9664 36.6261 53.0794 37.2604 53.1849L37.0964 54.1713C36.4548 54.0647 35.8108 53.9503 35.1663 53.8276L35.3533 52.8452ZM39.1756 53.4816C39.8208 53.5746 40.462 53.66 41.0974 53.7386L40.9748 54.731C40.333 54.6517 39.6851 54.5654 39.033 54.4714L39.1756 53.4816ZM43.0243 53.9581C43.6771 54.0263 44.3213 54.0876 44.9548 54.1424L44.8685 55.1387C44.2294 55.0833 43.5793 55.0216 42.9204 54.9527L43.0243 53.9581ZM46.8868 54.2932C47.5475 54.3392 48.1929 54.3785 48.8203 54.4119L48.767 55.4105C48.1345 55.3768 47.4837 55.3371 46.8174 55.2908L46.8868 54.2932ZM50.7663 54.5002C51.4421 54.5255 52.0899 54.5442 52.7055 54.5575L52.6838 55.5573C52.0632 55.5438 51.4101 55.525 50.729 55.4995L50.7663 54.5002ZM54.6471 54.5844C55.3602 54.5885 56.0085 54.5859 56.5821 54.5795L56.5933 55.5795C56.0143 55.5859 55.3603 55.5886 54.6413 55.5844L54.6471 54.5844ZM58.5275 54.5387C58.8352 54.5289 59.0726 54.5194 59.2326 54.5124C59.3126 54.5089 59.3732 54.506 59.4136 54.504C59.4339 54.503 59.449 54.5022 59.459 54.5017C59.464 54.5014 59.4677 54.5012 59.4701 54.5011C59.4713 54.501 59.4722 54.501 59.4728 54.501C59.473 54.5009 59.4732 54.5009 59.4734 54.5009C59.4734 54.5009 59.4734 54.5009 59.4735 54.5009C59.4735 54.5009 59.4735 54.5009 59.4735 54.5009C59.4735 54.5009 59.4735 54.5009 59.4735 54.5009C59.4734 54.5009 59.4734 54.5009 59.5007 55.0002C59.528 55.4994 59.528 55.4994 59.528 55.4994C59.528 55.4994 59.528 55.4994 59.528 55.4994C59.528 55.4994 59.5279 55.4994 59.5279 55.4994C59.5278 55.4994 59.5277 55.4994 59.5276 55.4994C59.5274 55.4995 59.5271 55.4995 59.5267 55.4995C59.526 55.4995 59.5249 55.4996 59.5234 55.4997C59.5206 55.4998 59.5165 55.5 59.511 55.5003C59.5001 55.5009 59.4841 55.5017 59.463 55.5028C59.4207 55.5048 59.3582 55.5078 59.2764 55.5114C59.1126 55.5186 58.8713 55.5282 58.5595 55.5382L58.5275 54.5387Z" fill="#4F4F4F"/>
</svg>
