<svg width="42" height="98" viewBox="0 0 42 98" fill="none" xmlns="http://www.w3.org/2000/svg">
<path d="M41.5012 97.0311L37.971 92.4626L35.7796 97.804L41.5012 97.0311ZM4.31881 1.58243C4.3726 1.31158 4.19663 1.0484 3.92578 0.994614C3.65492 0.940824 3.39175 1.1168 3.33796 1.38765L4.31881 1.58243ZM6.27202 60.6543L5.80562 60.8346L6.27202 60.6543ZM38.992 95.3721C38.4662 95.1167 37.8737 94.8179 37.2245 94.4736L36.7559 95.357C37.4161 95.7071 38.0191 96.0113 38.5551 96.2716L38.992 95.3721ZM35.4826 93.5133C34.9394 93.2025 34.3699 92.8661 33.7778 92.5031L33.2551 93.3557C33.8561 93.7241 34.4344 94.0657 34.986 94.3813L35.4826 93.5133ZM32.0943 91.4365C31.5606 91.0872 31.0133 90.7184 30.4548 90.3294L29.8833 91.1501C30.4499 91.5447 31.0052 91.9189 31.5467 92.2732L32.0943 91.4365ZM28.8433 89.1725C28.3236 88.7879 27.7966 88.3867 27.2641 87.9684L26.6464 88.7549C27.1867 89.1792 27.7213 89.5862 28.2485 89.9763L28.8433 89.1725ZM25.7199 86.7193C25.2205 86.3032 24.7177 85.8722 24.2129 85.4262L23.5508 86.1756C24.063 86.6282 24.5731 87.0654 25.0798 87.4876L25.7199 86.7193ZM22.7447 84.0902C22.269 83.6445 21.7927 83.1852 21.3169 82.7121L20.6119 83.4212C21.0948 83.9014 21.5782 84.3675 22.0609 84.8199L22.7447 84.0902ZM19.9309 81.2925C19.4817 80.8183 19.0338 80.3316 18.5883 79.832L17.842 80.4976C18.2943 81.0048 18.749 81.4989 19.205 81.9803L19.9309 81.2925ZM17.2905 78.3315C16.8701 77.8301 16.4526 77.3169 16.039 76.7916L15.2533 77.4103C15.6734 77.9438 16.0973 78.4649 16.5243 78.974L17.2905 78.3315ZM14.8351 75.2132C14.4457 74.6859 14.0606 74.1472 13.6804 73.5971L12.8577 74.1657C13.2439 74.7245 13.6352 75.2716 14.0307 75.8072L14.8351 75.2132ZM12.5775 71.9467C12.2229 71.3974 11.8734 70.8375 11.5298 70.2667L10.6731 70.7824C11.0221 71.3623 11.3771 71.9311 11.7374 72.4891L12.5775 71.9467ZM10.5348 68.5531C10.2147 67.9813 9.90071 67.3993 9.59331 66.8069L8.7057 67.2675C9.018 67.8693 9.33703 68.4606 9.66219 69.0415L10.5348 68.5531ZM8.70612 65.029C8.42282 64.438 8.14618 63.8373 7.87673 63.2267L6.96185 63.6305C7.23557 64.2507 7.51659 64.8609 7.80439 65.4613L8.70612 65.029ZM7.10601 61.4037C6.98162 61.0962 6.85907 60.7864 6.73841 60.4741L5.80562 60.8346C5.92817 61.1517 6.05265 61.4664 6.17899 61.7787L7.10601 61.4037ZM6.73841 60.4741C6.6202 60.1682 6.50459 59.8606 6.39154 59.5512L5.4523 59.8945C5.56742 60.2095 5.68518 60.5229 5.80562 60.8346L6.73841 60.4741ZM5.74494 57.6806C5.54071 57.0551 5.34615 56.4239 5.1609 55.7875L4.20076 56.0671C4.38892 56.7134 4.58665 57.3549 4.79434 57.991L5.74494 57.6806ZM4.63648 53.8786C4.47144 53.241 4.31514 52.5991 4.16723 51.9537L3.1925 52.1771C3.34243 52.8313 3.50093 53.4822 3.66838 54.1292L4.63648 53.8786ZM3.74983 50.0151C3.61918 49.3677 3.49647 48.7176 3.38136 48.0654L2.39658 48.2392C2.51306 48.8992 2.63728 49.5573 2.7696 50.2129L3.74983 50.0151ZM3.05906 46.1072C2.95903 45.4532 2.86622 44.7979 2.78028 44.1418L1.78875 44.2717C1.87559 44.9346 1.96941 45.5971 2.07056 46.2584L3.05906 46.1072ZM2.54249 42.1698C2.46971 41.5107 2.40352 40.8516 2.34356 40.1931L1.34768 40.2838C1.4082 40.9484 1.47503 41.6139 1.54853 42.2796L2.54249 42.1698ZM2.18151 38.2133C2.13328 37.551 2.09105 36.8902 2.05445 36.2314L1.05599 36.2869C1.0929 36.9512 1.1355 37.6178 1.18415 38.286L2.18151 38.2133ZM1.96047 34.2441C1.9344 33.578 1.91379 32.9148 1.89828 32.2554L0.898559 32.2789C0.914189 32.9434 0.934953 33.6117 0.961239 34.2832L1.96047 34.2441ZM1.86646 30.2667C1.86073 29.599 1.85995 28.9361 1.86371 28.2787L0.863724 28.273C0.859938 28.935 0.860725 29.6027 0.866501 30.2753L1.86646 30.2667ZM1.88881 26.2922C1.90185 25.6228 1.91932 24.9602 1.94077 24.3054L0.94131 24.2727C0.919717 24.9318 0.902127 25.5987 0.889002 26.2727L1.88881 26.2922ZM2.0189 22.3146C2.04964 21.6415 2.08428 20.9781 2.12229 20.3255L1.12398 20.2673C1.08574 20.924 1.05088 21.5916 1.01994 22.269L2.0189 22.3146ZM2.25025 18.3382C2.2979 17.6625 2.34879 17.0004 2.40224 16.3533L1.40563 16.2709C1.35186 16.9219 1.30067 17.588 1.25273 18.2679L2.25025 18.3382ZM2.57782 14.371C2.64212 13.691 2.7087 13.031 2.77665 12.3929L1.78228 12.287C1.71392 12.929 1.64694 13.5928 1.58226 14.2769L2.57782 14.371ZM2.9983 10.4225C3.08077 9.7266 3.1638 9.06387 3.24589 8.43719L2.25436 8.30731C2.17176 8.93791 2.08822 9.60471 2.00525 10.3048L2.9983 10.4225ZM3.51709 6.46429C3.62243 5.73331 3.72298 5.07401 3.81508 4.4936L2.82744 4.33688C2.73463 4.92178 2.63335 5.58578 2.52731 6.32166L3.51709 6.46429ZM4.14158 2.54243C4.19728 2.22809 4.24174 1.98731 4.27221 1.8255C4.28744 1.74459 4.29917 1.68344 4.30705 1.64269C4.31099 1.62232 4.31397 1.60707 4.31595 1.59699C4.31693 1.59195 4.31767 1.58822 4.31815 1.58578C4.31839 1.58457 4.31856 1.58368 4.31867 1.58312C4.31873 1.58284 4.31877 1.58264 4.31879 1.58253C4.3188 1.58247 4.31881 1.58243 4.31881 1.58242C4.31882 1.58241 4.31882 1.58241 4.31882 1.58241C4.31882 1.58241 4.31881 1.58242 4.31881 1.58242C4.31881 1.58242 4.31881 1.58243 3.82839 1.48504C3.33796 1.38765 3.33796 1.38766 3.33796 1.38767C3.33796 1.38768 3.33796 1.38769 3.33795 1.3877C3.33795 1.38773 3.33794 1.38775 3.33794 1.38778C3.33792 1.38785 3.33791 1.38794 3.33789 1.38805C3.33784 1.38826 3.33778 1.38855 3.33771 1.38894C3.33756 1.38969 3.33735 1.39078 3.33707 1.39219C3.33651 1.39502 3.33569 1.39915 3.33463 1.40459C3.3325 1.41547 3.32936 1.43153 3.32526 1.45272C3.31706 1.49509 3.30502 1.5579 3.28947 1.64049C3.25837 1.80568 3.21327 2.04997 3.15692 2.36794L4.14158 2.54243Z" fill="#4F4F4F"/>
</svg>
